<svg width="101" height="22" viewBox="0 0 101 22" fill="none" xmlns="http://www.w3.org/2000/svg">
<path d="M12.456 17.0703H15.72L9.048 0.342312H6.792L0.096 17.0703H3.36L4.632 13.6143H11.184L12.456 17.0703ZM5.664 10.8543L7.92 4.75831L10.176 10.8543H5.664Z" fill="white"/>
<path d="M35.4842 4.99831C34.2122 4.99831 32.8922 5.40631 32.0762 6.41431V5.23831H29.1962V21.9663H32.0762V15.8703C32.8202 16.7583 34.1402 17.3103 35.4842 17.3103C38.3882 17.3103 40.4762 15.0303 40.4762 11.1663C40.4762 7.61431 38.7002 4.99831 35.4842 4.99831ZM34.7642 14.7903C32.7002 14.7903 31.8122 13.2063 31.8122 11.1423C31.8122 9.03031 32.7002 7.51831 34.7882 7.51831C36.7082 7.51831 37.5962 8.81431 37.5962 11.1423C37.5962 13.4463 36.6842 14.7903 34.7642 14.7903ZM49.242 4.99831C47.97 4.99831 46.65 5.40631 45.834 6.41431V5.23831H42.954V21.9663H45.834V15.8703C46.578 16.7583 47.898 17.3103 49.242 17.3103C52.146 17.3103 54.234 15.0303 54.234 11.1663C54.234 7.61431 52.458 4.99831 49.242 4.99831ZM48.522 14.7903C46.458 14.7903 45.57 13.2063 45.57 11.1423C45.57 9.03031 46.458 7.51831 48.546 7.51831C50.466 7.51831 51.354 8.81431 51.354 11.1423C51.354 13.4463 50.442 14.7903 48.522 14.7903ZM69.9118 4.99831C68.3758 4.99831 67.0078 5.55031 66.0958 7.32631C65.3758 5.50231 63.9358 4.99831 62.6398 4.99831C61.4638 4.99831 60.2398 5.40631 59.4718 6.72631V5.23831H56.6878L56.7118 17.0703H59.5918V12.5583C59.5918 10.1823 59.5198 7.51831 61.9438 7.51831C63.8158 7.51831 63.9358 9.46231 63.9358 10.3983V17.0703H66.8158V12.5583C66.8158 10.1823 66.7198 7.51831 69.1438 7.51831C71.0398 7.51831 71.1598 9.46231 71.1598 10.3983V17.0703H74.0398V9.53431C74.0398 7.15831 72.7678 4.99831 69.9118 4.99831ZM81.6859 4.99831C79.5259 4.99831 77.7739 5.83831 76.3579 7.54231L78.4459 9.29431C79.3099 8.14231 80.4379 7.51831 81.6379 7.51831C83.0059 7.51831 83.8699 8.31031 83.8699 9.60631V9.94231H80.9179C79.5739 9.94231 78.5659 10.1103 77.7739 10.4703C76.6219 10.9983 75.9979 12.0543 75.9979 13.4463C75.9979 15.7023 77.7739 17.3103 80.2699 17.3103C81.8299 17.3103 83.1739 16.6383 83.8699 15.5343L84.1099 17.0703H86.7499V9.60631C86.7499 6.75031 84.8059 4.99831 81.6859 4.99831ZM80.7259 14.8623C79.5739 14.8623 78.8779 14.3343 78.8779 13.4943C78.8779 13.0623 79.0459 12.7263 79.3579 12.5103C79.7419 12.2223 80.3179 12.1023 81.3019 12.1023H83.8699C83.8699 13.6383 82.4539 14.8623 80.7259 14.8623ZM88.1736 17.0703H91.7016L94.1496 13.0863L96.5976 17.0703H100.126L96.0456 11.1183L100.126 5.23831H96.5976L94.1496 9.15031L91.7016 5.23831H88.1736L92.2296 11.1183L88.1736 17.0703Z" fill="#000B33"/>
</svg>
