<svg width="160" height="14" viewBox="0 0 160 14" fill="none" xmlns="http://www.w3.org/2000/svg">
<g id="Social Icon">
<g id="Group">
<path id="Vector" d="M107.286 0.35229L105.608 0.349609C103.721 0.349609 102.503 1.5939 102.503 3.51977V4.98142H100.815C100.669 4.98142 100.551 5.09908 100.551 5.24422V7.36199C100.551 7.50712 100.669 7.62465 100.815 7.62465H102.503V12.9685C102.503 13.1136 102.621 13.2311 102.767 13.2311H104.969C105.115 13.2311 105.233 13.1135 105.233 12.9685V7.62465H107.206C107.352 7.62465 107.47 7.50712 107.47 7.36199L107.471 5.24422C107.471 5.17453 107.443 5.10779 107.394 5.05848C107.344 5.00916 107.277 4.98142 107.207 4.98142H105.233V3.74236C105.233 3.14682 105.375 2.84449 106.155 2.84449L107.286 2.84409C107.432 2.84409 107.55 2.72642 107.55 2.58142V0.614951C107.55 0.470085 107.432 0.352558 107.286 0.35229Z" fill="#000B33"/>
</g>
<g id="Group_2">
<g id="Group_3">
<path id="Vector_2" d="M160 2.83826C159.482 3.06455 158.929 3.21455 158.353 3.28738C158.946 2.93536 159.398 2.3822 159.611 1.71546C159.058 2.0432 158.448 2.27469 157.798 2.40388C157.274 1.84812 156.526 1.50391 155.71 1.50391C154.128 1.50391 152.854 2.7819 152.854 4.34861C152.854 4.57404 152.873 4.7908 152.92 4.99715C150.544 4.88183 148.442 3.74863 147.029 2.02239C146.783 2.4481 146.638 2.93536 146.638 3.45991C146.638 4.44485 147.148 5.31795 147.908 5.82342C147.448 5.81475 146.998 5.6821 146.616 5.47315C146.616 5.48182 146.616 5.49309 146.616 5.50436C146.616 6.88639 147.607 8.03434 148.906 8.29878C148.673 8.36207 148.42 8.39242 148.157 8.39242C147.974 8.39242 147.789 8.38201 147.616 8.34386C147.986 9.47013 149.037 10.2981 150.286 10.325C149.314 11.0819 148.079 11.538 146.743 11.538C146.508 11.538 146.283 11.5276 146.059 11.499C147.325 12.3114 148.825 12.7752 150.443 12.7752C155.703 12.7752 158.578 8.4401 158.578 4.68242C158.578 4.5567 158.574 4.43532 158.568 4.3148C159.135 3.91423 159.611 3.41396 160 2.83826Z" fill="#FD4C5C"/>
</g>
</g>
<g id="Group 4">
<path id="Vector_3" d="M62.0379 12.7623V12.7618H62.0407V8.62851C62.0407 6.60646 61.6033 5.04883 59.2276 5.04883C58.0855 5.04883 57.3191 5.67244 57.0062 6.26366H56.9732V5.2376H54.7207V12.7618H57.0662V9.03612C57.0662 8.05514 57.2531 7.10657 58.4739 7.10657C59.6769 7.10657 59.6948 8.22607 59.6948 9.09904V12.7623H62.0379Z" fill="#000B33"/>
<path id="Vector_4" d="M50.9014 5.25H53.2497V12.7742H50.9014V5.25Z" fill="#000B33"/>
<path id="Vector_5" d="M52.0818 1.50391C51.3309 1.50391 50.7217 2.11015 50.7217 2.85726C50.7217 3.60438 51.3309 4.2233 52.0818 4.2233C52.8326 4.2233 53.4419 3.60438 53.4419 2.85726C53.4414 2.11015 52.8321 1.50391 52.0818 1.50391V1.50391Z" fill="#000B33"/>
</g>
<g id="Group 27">
<g id="Group_4">
<g id="Group_5">
<path id="Vector_6" d="M8.3934 1.50391H3.81518C1.70844 1.50391 0 3.20389 0 5.3002V9.85576C0 11.9521 1.70844 13.6521 3.81518 13.6521H8.3934C10.5001 13.6521 12.2086 11.9521 12.2086 9.85576V5.3002C12.2086 3.20389 10.5001 1.50391 8.3934 1.50391ZM11.064 9.85576C11.064 11.3211 9.86606 12.5132 8.3934 12.5132H3.81518C2.34252 12.5132 1.14455 11.3211 1.14455 9.85576V5.3002C1.14455 3.83483 2.34252 2.6428 3.81518 2.6428H8.3934C9.86606 2.6428 11.064 3.83483 11.064 5.3002V9.85576Z" fill="#000B33"/>
</g>
</g>
<g id="Group_6">
<g id="Group_7">
<path id="Vector_7" d="M6.11074 4.54688C4.42519 4.54688 3.05859 5.90671 3.05859 7.58391C3.05859 9.26112 4.42519 10.621 6.11074 10.621C7.79629 10.621 9.16289 9.26112 9.16289 7.58391C9.16289 5.90671 7.79629 4.54688 6.11074 4.54688ZM6.11074 9.48206C5.05928 9.48206 4.20315 8.63017 4.20315 7.58391C4.20315 6.53689 5.05928 5.68576 6.11074 5.68576C7.1622 5.68576 8.01833 6.53689 8.01833 7.58391C8.01833 8.63017 7.1622 9.48206 6.11074 9.48206Z" fill="#000B33"/>
</g>
</g>
<g id="Group_8">
<g id="Group_9">
<path id="Vector_8" d="M9.37648 4.72744C9.60167 4.72744 9.78422 4.5458 9.78422 4.32173C9.78422 4.09766 9.60167 3.91602 9.37648 3.91602C9.1513 3.91602 8.96875 4.09766 8.96875 4.32173C8.96875 4.5458 9.1513 4.72744 9.37648 4.72744Z" fill="#000B33"/>
</g>
</g>
</g>
</g>
</svg>
