<svg width="41" height="31" viewBox="0 0 41 31" fill="none" xmlns="http://www.w3.org/2000/svg">
<path id="Vector" d="M9.10503 12.4888C8.65969 12.4888 8.23232 12.5567 7.80694 12.6186C7.94474 12.1553 8.08653 11.684 8.3142 11.2606C8.54186 10.6456 8.89734 10.1123 9.25082 9.57513C9.54638 8.99399 10.0676 8.60056 10.451 8.1033C10.8525 7.62001 11.3996 7.29848 11.833 6.89707C12.2584 6.47769 12.8156 6.268 13.2589 5.97244C13.7222 5.70683 14.1256 5.41326 14.557 5.27347L15.6334 4.83012L16.58 4.4367L15.6114 0.566406L14.4192 0.853982C14.0378 0.94984 13.5724 1.06168 13.0432 1.19548C12.502 1.29533 11.9249 1.56893 11.2818 1.81856C10.6468 2.10214 9.91184 2.29386 9.22885 2.74919C8.54186 3.18455 7.74903 3.54801 7.05006 4.13115C6.37306 4.73227 5.55626 5.2535 4.95315 6.01837C4.29412 6.73332 3.64308 7.48421 3.13783 8.33895C2.55269 9.15375 2.15528 10.0484 1.7359 10.9331C1.35645 11.8178 1.05091 12.7225 0.801273 13.6012C0.327971 15.3626 0.116283 17.0361 0.0344038 18.468C-0.0334961 19.9019 0.006445 21.0942 0.0903213 21.9569C0.120277 22.3643 0.176195 22.7597 0.216136 23.0333L0.266062 23.3688L0.317986 23.3568C0.673184 25.016 1.49086 26.5408 2.67644 27.7547C3.86201 28.9686 5.36702 29.8221 7.01739 30.2164C8.66775 30.6106 10.396 30.5296 12.0023 29.9827C13.6085 29.4358 15.0271 28.4453 16.0939 27.1258C17.1608 25.8063 17.8323 24.2118 18.0307 22.5266C18.2292 20.8415 17.9465 19.1346 17.2153 17.6033C16.4842 16.0721 15.3345 14.7792 13.8993 13.8741C12.464 12.969 10.8018 12.4887 9.10503 12.4888ZM31.0726 12.4888C30.6273 12.4888 30.1999 12.5567 29.7746 12.6186C29.9124 12.1553 30.0541 11.684 30.2818 11.2606C30.5095 10.6456 30.865 10.1123 31.2184 9.57513C31.514 8.99399 32.0352 8.60056 32.4187 8.1033C32.8201 7.62001 33.3673 7.29848 33.8006 6.89707C34.226 6.47769 34.7832 6.268 35.2265 5.97244C35.6898 5.70683 36.0932 5.41326 36.5246 5.27347L37.601 4.83012L38.5476 4.4367L37.5791 0.566406L36.3868 0.853982C36.0054 0.94984 35.5401 1.06168 35.0108 1.19548C34.4696 1.29533 33.8925 1.56893 33.2494 1.81856C32.6164 2.10414 31.8795 2.29386 31.1965 2.75119C30.5095 3.18654 29.7166 3.55001 29.0177 4.13315C28.3407 4.73426 27.5239 5.2555 26.9208 6.01837C26.2617 6.73332 25.6107 7.48421 25.1054 8.33895C24.5203 9.15375 24.1229 10.0484 23.7035 10.9331C23.3241 11.8178 23.0185 12.7225 22.7689 13.6012C22.2956 15.3626 22.0839 17.0361 22.002 18.468C21.9341 19.9019 21.9741 21.0942 22.0579 21.9569C22.0879 22.3643 22.1438 22.7597 22.1837 23.0333L22.2337 23.3688L22.2856 23.3568C22.6408 25.016 23.4585 26.5408 24.644 27.7547C25.8296 28.9686 27.3346 29.8221 28.985 30.2164C30.6354 30.6106 32.3636 30.5296 33.9699 29.9827C35.5761 29.4358 36.9947 28.4453 38.0616 27.1258C39.1284 25.8063 39.7999 24.2118 39.9983 22.5266C40.1968 20.8415 39.9141 19.1346 39.183 17.6033C38.4518 16.0721 37.3021 14.7792 35.8669 13.8741C34.4316 12.969 32.7695 12.4887 31.0726 12.4888Z" fill="#FD4C5C"/>
</svg>
